<svg xmlns="http://www.w3.org/2000/svg" xmlns:xlink="http://www.w3.org/1999/xlink" width="1000" height="1000" viewBox="0 0 1000 1000"><g opacity=".3"><path fill="#1A1A1A" d="M406.668 213.4h33.334v50h-33.334z"/><defs><path id="a" d="M406.668 213.4h33.334v50h-33.334z"/></defs><clipPath id="b"><use xlink:href="#a" overflow="visible"/></clipPath><path clip-path="url(#b)" fill="#1A1A1A" d="M406.668 213.4h33.334v50h-33.334z"/></g><path fill="#1A1A1A" d="M438.327 200H408.34c-4.585 0-8.34 3.745-8.34 8.337v63.343c0 4.573 3.755 8.32 8.34 8.32h29.987c4.604 0 8.347-3.748 8.347-8.32v-63.343c.002-4.592-3.744-8.337-8.347-8.337m-14.99 77.57c-3.266 0-5.904-2.64-5.904-5.908 0-3.264 2.64-5.904 5.905-5.904 3.262 0 5.906 2.64 5.906 5.904 0 3.27-2.643 5.91-5.906 5.91m-16.673-64.232h33.337v49.994h-33.337V213.34zM205.684 240c0 13.578 7.89 25.324 19.337 30.883l-16.366-44.848c-1.904 4.266-2.97 8.986-2.97 13.965zm57.48-1.734c0-4.24-1.532-7.177-2.83-9.457-1.74-2.83-3.374-5.228-3.374-8.05 0-3.16 2.39-6.093 5.764-6.093.146 0 .292.02.44.03-6.094-5.595-14.23-9.015-23.167-9.015-11.987 0-22.533 6.157-28.668 15.47.8.03 1.564.04 2.206.04 3.592 0 9.144-.432 9.144-.432 1.853-.115 2.07 2.606.228 2.822 0 0-1.865.22-3.932.332l12.497 37.164 7.51-22.52-5.34-14.644c-1.853-.112-3.605-.332-3.605-.332-1.85-.108-1.63-2.936.22-2.823 0 0 5.663.43 9.033.43 3.588 0 9.15-.43 9.15-.43 1.844-.115 2.07 2.602.216 2.82 0 0-1.86.22-3.926.333l12.403 36.887 3.42-11.44c1.482-4.746 2.61-8.153 2.61-11.094zM240.602 243l-10.297 29.923c3.075.893 6.325 1.397 9.69 1.397 4 0 7.83-.69 11.396-1.94-.09-.153-.177-.31-.25-.478L240.6 243zm29.512-19.464c.145 1.094.226 2.266.226 3.53 0 3.48-.652 7.398-2.61 12.29l-10.483 30.305c10.21-5.947 17.07-16.995 17.07-29.66 0-5.96-1.532-11.576-4.203-16.463zM240 200c-22.054 0-40 17.946-40 40 0 22.06 17.946 40 40 40 22.06 0 40-17.94 40-40 0-22.054-17.94-40-40-40zm0 78.164c-21.04 0-38.166-17.118-38.166-38.164 0-21.04 17.12-38.166 38.166-38.166 21.05 0 38.164 17.125 38.164 38.166 0 21.048-17.12 38.164-38.164 38.164z"/><g fill="#1A1A1A"><path d="M23.59 232.59h11.664v-9.04H22.79l.8 9.04zM0 200l6.426 72 28.81 8 28.846-7.998L70.507 200H0zm58.573 67.413l-23.32 6.468v-9.152h-.01L17.15 259.71l-1.268-14.187h8.863l.664 7.364 9.83 2.64h.013v-14.1H15.526l-2.384-26.707h22.112v-8.828H64.07l-5.497 61.52z"/><path opacity=".8" d="M46.128 241.426H35.254v14.098l9.847-2.652 1.03-11.446zm-10.874-35.534v8.827h22.12l-.792 8.83H35.254v9.04h20.52l-2.425 27.12-18.098 5.015v9.156l23.32-6.467 5.496-61.522H35.253z"/><path d="M35.254 214.72H13.142l2.384 26.706h19.728v-8.835H23.59l-.8-9.04h12.464zm0 40.804l-.01.002-9.834-2.65-.66-7.355h-8.86l1.26 14.19 18.092 5.017h.012z" opacity=".2"/></g><path fill="#fff" d="M830 423.75c0 .345-.28.625-.625.625h-28.75c-.344 0-.625-.28-.625-.625v-2.5c0-.345.28-.625.625-.625h28.75c.344 0 .624.28.624.625v2.5zm0-10c0-.344-.28-.625-.625-.625h-28.75c-.344 0-.625.28-.625.625v2.5c0 .345.28.625.625.625h28.75c.344 0 .624-.28.624-.625v-2.5zm0-7.5c0-.344-.28-.625-.625-.625h-28.75c-.344 0-.625.28-.625.625v2.5c0 .344.28.625.625.625h28.75c.344 0 .624-.282.624-.625v-2.5zM630 414.134v1.494l-10.998 6.36v-3.052l7.104-4.058-7.104-3.82v-3.046L630 414.134zm-30 0v1.494l11 6.36v-3.052l-7.105-4.058L611 411.06v-3.047l-11 6.12zM730 411.955c-1.11.47-2.262.89-3.426 1.303 1.02 1.145.665 3.502.065 4.862.407.51.317 1.48-.338 1.643-.003.726.124 1.378.336 1.92.232.584.67.978.895 1.37-.562.19-.933.574-1.718.547-1-.734-1.146-3.047-.336-4.107-.09-.21-.195-.562-.14-.826.077-.355.354-.4.55-.752.682-1.248.56-3.445-.28-4.246-2.526.92-4.956 1.796-7.662 2.807-.664.242-1.816.967-2.475.957-.468-.003-1.35-.62-1.98-.89-4.563-1.927-9.137-4.108-13.496-6.16 3.752-1 7.645-1.948 11.508-2.946 1.286-.335 2.53-.837 3.762-1.032.453-.066 1.28.445 1.923.686 4.3 1.637 8.59 3.25 12.807 4.86zm-6.646 3.22c.4 1.287.437 3.165.14 4.588-3.98-.972-7.358.675-9.044 2.88-1.655-2.542-3.988-4.78-8.29-4.452-.21-1.49.338-2.82.692-3.97 1.726.8 4.433 1.934 6.506 2.875.676.308 1.55.938 2.053.956.48.023 1.49-.467 2.057-.68 1.966-.76 4.013-1.64 5.888-2.193zM529.812 426.18l-7.503-7.502c1.216-1.892 1.936-4.14 1.936-6.553 0-6.688-5.44-12.125-12.122-12.125-6.688 0-12.125 5.438-12.125 12.125 0 6.686 5.436 12.12 12.124 12.12 2.41 0 4.66-.716 6.553-1.936l7.502 7.5c.25.25.667.25.91 0l2.72-2.723c.25-.246.25-.65 0-.907zm-25.96-14.055c0-4.562 3.708-8.273 8.273-8.273 4.56 0 8.27 3.71 8.27 8.273 0 4.56-3.708 8.27-8.27 8.27-4.565.007-8.274-3.71-8.274-8.27z"/><g opacity=".3"><path fill="#fff" d="M8.5 405.026H21v18.75H8.5z"/><path fill="#fff" d="M8.5 405.026H21v18.75H8.5z"/><defs><path id="c" d="M8.5 405.026H21v18.75H8.5z"/></defs><clipPath id="d"><use xlink:href="#c" overflow="visible"/></clipPath><path clip-path="url(#d)" fill="#fff" d="M8.5 405.026H21v18.75H8.5z"/></g><path fill="#fff" d="M20.373 400H9.127C7.407 400 6 401.405 6 403.127v23.753c0 1.716 1.408 3.12 3.127 3.12h11.246c1.726 0 3.13-1.404 3.13-3.12v-23.753c0-1.722-1.404-3.127-3.13-3.127m-5.62 29.09c-1.227 0-2.215-.99-2.215-2.217 0-1.225.99-2.214 2.214-2.214 1.223 0 2.214.987 2.214 2.212 0 1.227-.99 2.216-2.214 2.216M8.5 405H21v18.748H8.5V405zM100 410.13h9.74v9.74H100zm20.26 0H130v9.74h-9.74zM422.1 402.81l.635.637 3.82 3.82.635.64.64-.64 1.274-1.272.633-.637c.35-.35.352-.922 0-1.274l-3.82-3.82c-.352-.35-.923-.35-1.273 0l-.635.635-1.276 1.273-.634.637zm-17.564 17.564l16.02-16.024 5.094 5.088-16.025 16.025zm-1.544 1.54l-2.95 7.678c-.126.33.042.492.366.365l7.677-2.947-5.093-5.096zM215.003 400.01L200 407.593v4.984l15.003-7.583L230 412.578v-4.984z"/><path fill="#fff" d="M215.003 408.712L200 416.297v4.984l15.003-7.576L230 421.28v-4.983z"/><path fill="#fff" d="M215.003 417.423L200 425v4.992l15.003-7.584L230 429.992v-4.99zM326.516 409.808l-9.206-6.626v-2.604h-4.62v2.606l-9.173 6.624H300v4.615h1.717l3.4 10.385h-.502v4.615h4.615v-1.153h11.54v1.153h4.616v-4.615h-.51l3.396-10.385H330v-4.615h-3.484zm-23.056 3.46h-2.306v-2.305h2.305v2.305zm10.385-11.535h2.31v2.305h-2.31v-2.305zm-5.77 26.537h-2.304v-2.307h2.306v2.307zm16.154 0h-2.306v-2.307h2.306v2.307zm-1.777-3.462h-1.684v1.155h-11.543v-1.155h-1.682l-3.4-10.385h.47v-2.562l9.237-6.666h2.303l9.23 6.646v2.583h.458l-3.39 10.385zm6.39-11.54h-2.304v-2.305h2.304v2.305z"/><path fill="#C32F34" d="M226.875 600h-23.75c-1.727 0-3.125 1.398-3.125 3.125v23.75c0 1.727 1.398 3.125 3.125 3.125h23.75c1.727 0 3.125-1.398 3.125-3.125v-23.75c0-1.727-1.398-3.125-3.125-3.125zM212.5 620H210v-3.75h2.5V620zm3.75 1.25h-2.5V620h2.5v1.25zM220 620h-2.5v-3.75h2.5V620zm-1.25-11.25l5-2.5.078 5c.903 1.084 1.172 2.23 1.172 3.75v1.25c0 2.305-1.263 4.296-3.117 5.38.38-.438.617-1.004.617-1.63v-2.5c0-1.38-1.12-2.5-2.5-2.5h-10c-1.38 0-2.5 1.12-2.5 2.5v2.5c0 .626.238 1.19.617 1.63-1.855-1.085-3.117-3.075-3.117-5.38V615c0-1.428.444-2.698 1.25-3.75v-5l5 2.497 7.5.003zM126.875 600h-23.75c-1.72 0-3.125 1.406-3.125 3.125v23.75c0 1.72 1.406 3.125 3.125 3.125h23.75c1.72 0 3.125-1.406 3.125-3.125v-23.75c0-1.72-1.406-3.125-3.125-3.125zM110 623.75h-3.75v-12.5H110v12.5zm-1.875-14.2c-1.263 0-2.285-1.022-2.285-2.284s1.023-2.285 2.285-2.285 2.285 1.025 2.285 2.287-1.023 2.285-2.285 2.285zm15.625 14.2H120v-6.616c0-1.562-.665-2.626-2.062-2.626-1.066 0-1.283.72-1.56 1.41-.104.25-.128.596-.128.942v6.89h-3.75s.05-11.41 0-12.5h3.75v2.13c0-.79.885-2.17 3.828-2.17s3.672.094 3.672 4.227v8.313zM26.875 600H3.125C1.405 600 0 601.406 0 603.125v23.75C0 628.595 1.406 630 3.125 630h23.75c1.72 0 3.125-1.406 3.125-3.125v-23.75c0-1.72-1.406-3.125-3.125-3.125zm-2.946 11.136c.005.19.01.386.01.58 0 5.923-4.506 12.75-12.75 12.75-2.53 0-4.885-.74-6.87-2.015.353.044.71.065 1.07.065 2.1 0 4.033-.716 5.566-1.917-1.96-.036-3.615-1.332-4.186-3.112.275.054.556.078.845.078.408 0 .804-.057 1.18-.156-2.05-.41-3.595-2.222-3.595-4.395v-.055c.604.335 1.294.538 2.03.558-1.202-.802-1.994-2.174-1.994-3.728 0-.82.22-1.592.607-2.252 2.21 2.71 5.51 4.494 9.236 4.682-.08-.33-.118-.67-.118-1.023 0-2.472 2.007-4.48 4.48-4.48 1.29 0 2.455.544 3.273 1.416 1.02-.2 1.98-.573 2.844-1.09-.335 1.05-1.046 1.927-1.97 2.48.906-.105 1.77-.347 2.573-.704-.602.898-1.36 1.687-2.235 2.32z"/><path d="M22.01 1.086C21.764.55 22.092 0 22.716 0h5.542c.34 0 .626.256.707.45l6.873 15.21h.256L42.956.45c.096-.194.387-.45.708-.45h5.542c.635 0 .96.55.708 1.086L36.837 29.114c-.128.25-.375.464-.706.464h-.42c-.322 0-.58-.214-.707-.464L22.01 1.086zm5.98 28.004c.244.537-.084 1.084-.708 1.084H21.74c-.338 0-.628-.255-.708-.45l-6.874-15.21h-.255l-6.86 15.21c-.096.194-.385.45-.708.45H.793c-.635 0-.96-.548-.708-1.085L13.162 1.06c.13-.248.375-.464.708-.464h.42c.32 0 .58.216.706.464L27.99 29.09z" fill="#fff"/></svg>