<svg width="138" height="24" xmlns="http://www.w3.org/2000/svg"><g fill="none" fill-rule="evenodd"><g fill="#2E304B" fill-rule="nonzero"><path d="M24.388 11.802c-.113-1.906-1.156-3.193-2.934-3.63-1.635-.397-3.28-.056-5.004 1.063l-1.347.925V.272S9.765 1.629 8.62 1.906l.061.501c1.513.388 1.76.69 1.865 2.216.016.266.022 11.694.022 16.48 0 1.102-1.097 1.314-1.596 1.382v.244h7.503v-.258l-.033-.005c-.479-.07-1.372-.203-1.372-1.41v-9.744l.058-.041c1.229-.95 2.36-1.144 3.463-.596 1.046.52 1.51 1.412 1.505 2.892l-.017 7.696c-.116.94-1.067 1.144-1.535 1.227v.241H26.125v-.247s-.12.007-.614-.115c-.39-.097-.972-.348-1.022-1.168M39.394 19.45c-1.422 1.198-3.375 1.67-5.249.956-2.77-1.056-2.965-4.056-2.965-4.056s3.158-.87 4.625-1.284a368.91 368.91 0 014.636-1.29c-.245-1.736-.876-2.915-1.788-3.99-1.671-1.971-4.406-1.967-5.118-1.967-3.386 0-5.225 1.686-6.174 2.995-1.44 1.984-1.847 4.712-1.093 7.297.754 2.595 2.51 4.22 5.22 4.83 3.46.783 6.42-.312 8.438-3.073l-.532-.417zm-8.506-4.533l-.006-.088c-.055-1.672.124-2.846.6-3.927.364-.829.897-1.325 1.59-1.474.444-.093.93-.071 1.297.067.869.333 1.345 1.4 1.24 2.788-.082 1.066-.368 1.405-1.46 1.739-.702.209-2.83.777-3.176.873l-.085.022zM8.004 20.57s-.752.645-1.635.645c-1.253 0-1.788-.68-1.788-1.62 0 0-.017-8.895-.017-9.804h3.437V8.414H4.57V3.33H3.98L.01 6.438 0 20.171c.001.1.022.565.12.886.276.9 1.197 2.15 3.359 2.13 3.505-.032 4.953-2.029 4.953-2.029l-.428-.589M135.633 20.792l.002-8.181c.037-1.562-.739-2.943-1.82-3.793-1.03-.806-2.632-.953-3.85-.643-1.984.506-3.804 1.937-3.804 1.937l-.817-1.717-5.221 1.504s.071.504.076.505c.846.218 1.45.964 1.49 1.837.008.16.029 8.58.029 8.58 0 .955-.84 1.49-1.582 1.664v.244h7.437v-.26c-.647-.15-1.394-.566-1.394-1.696 0-1.828-.022-9.35-.022-9.35s1.768-1.398 3.27-.837c1.27.475 1.67 1.548 1.739 2.762 0 0 .027 4.193.022 7.511-.028.942-.833 1.462-1.57 1.61v.262h7.436v-.26c-.655-.147-1.41-.56-1.421-1.679M93.653 21.75L83.819 8.383h-5.54v.26c.231.005.481.182.673.358.161.147.302.314.426.493l9.744 13.225h5.53v-.26c-.461-.01-1-.709-1-.709M89.262 12.405a9.38 9.38 0 01-.69.995l.442.604c.152-.151.01-.012.485-.482 1.578-1.564 5.205-5.14 5.205-5.14h-5.557c.033.032.069.075.107.125.81 1.093.74 2.692.008 3.898M83.721 18.696c.292-.48.558-.829.657-.953l-.448-.606-.446.442c-1.578 1.565-5.205 5.14-5.205 5.14h5.557a.995.995 0 01-.107-.125c-.81-1.092-.74-2.692-.008-3.898M61.277 11.8c-.114-1.906-1.156-3.194-2.935-3.631-1.634-.396-3.28-.056-5.003 1.063l-1.347.925V.27s-5.338 1.357-6.483 1.634l.06.502c1.514.388 1.76.69 1.865 2.216.016.265.022 11.693.022 16.48 0 1.101-1.097 1.314-1.596 1.381v.244h7.504v-.258l-.033-.005c-.48-.07-1.372-.202-1.372-1.41V11.31l.058-.04c1.228-.951 2.359-1.145 3.463-.597 1.045.521 1.51 1.413 1.504 2.892l-.017 7.697c-.116.939-1.067 1.144-1.534 1.227v.24h7.581v-.247s-.12.008-.614-.115c-.39-.096-.973-.348-1.022-1.168M104.291 13.487c-.793 3.518.214 5.884 2.121 7.794 1.596 1.597 3.857 1.863 5.064 1.9 4.582.141 7.749-2 8.33-6.618.537-4.273-1.995-7.595-5.07-8.39-1.916-.497-3.867-.37-5.758.296 0 0-3.787 1.029-4.687 5.018zm4.348 2.236a13.246 13.246 0 01.116-3.515c.083-.491.216-.962.396-1.398.47-1.108 1.215-1.717 2.21-1.806.025-.002.147-.005.147-.005.763-.068 1.507.24 2.099.862.886.941 1.212 2.119 1.49 3.342.118.499.323 2.104.323 2.104.11 1.236.07 2.391-.118 3.523a6.557 6.557 0 01-.399 1.401c-.47 1.108-1.215 1.726-2.21 1.815-.024.002-.163.013-.174.015-.75.067-1.485-.258-2.068-.879-.89-.943-1.215-2.12-1.494-3.344a15.49 15.49 0 01-.3-1.85l-.018-.265z"/><path d="M103.93 20.57s-.751.645-1.634.645c-1.253 0-1.789-.68-1.789-1.62 0 0-.016-8.895-.016-9.804h3.437V8.414h-3.432V3.33h-.589l-3.97 3.108-.01 13.733c.001.1.022.565.12.886.276.9 1.197 2.15 3.359 2.13 3.504-.032 4.953-2.029 4.953-2.029l-.428-.589M63.276 13.487c-.793 3.518.214 5.884 2.12 7.794 1.596 1.597 3.857 1.863 5.064 1.9 4.582.141 7.75-2 8.33-6.618.538-4.273-1.994-7.595-5.07-8.39-1.916-.497-3.866-.37-5.757.296 0 0-3.788 1.029-4.687 5.018zm4.348 2.236a13.246 13.246 0 01.115-3.515c.084-.491.217-.962.397-1.398.47-1.108 1.215-1.717 2.21-1.806.024-.002.146-.005.146-.005.763-.068 1.507.24 2.1.862.886.941 1.211 2.119 1.49 3.342.117.499.322 2.104.322 2.104.111 1.236.07 2.391-.117 3.523a6.557 6.557 0 01-.4 1.401c-.47 1.108-1.215 1.726-2.209 1.815-.025.002-.163.013-.174.015-.75.067-1.485-.258-2.068-.879-.89-.943-1.215-2.12-1.494-3.344a15.49 15.49 0 01-.3-1.85l-.018-.265z"/></g></g></svg>