<svg width="103" height="24" xmlns="http://www.w3.org/2000/svg"><g fill="none" fill-rule="evenodd"><g fill="#2E304B" fill-rule="nonzero"><path d="M94.235 7.765a8.118 8.118 0 110 16.235 8.118 8.118 0 010-16.235zm0 2.28a5.838 5.838 0 100 11.675 5.838 5.838 0 000-11.675zM76.827 7.765c3.517 0 5.761 2.503 5.761 5.885v8.45c0 .611-.501 1.107-1.12 1.107-.618 0-1.12-.496-1.12-1.107v-8.45c0-2.214-1.306-3.67-3.521-3.67-1.316 0-2.346.423-3.07 1.145-.58.577-.907 1.314-.907 1.852-.023.228.006.154-.028.236l.017.437v8.45c0 .611-.502 1.107-1.12 1.107-.619 0-1.12-.496-1.12-1.107v-8.45c0-2.446-1.257-3.67-3.72-3.67-2.306 0-3.93 1.568-3.93 3.525l-.003.024v8.658c0 .611-.502 1.107-1.12 1.107-.619 0-1.12-.496-1.12-1.107V9.015c0-.612.501-1.108 1.12-1.108.618 0 1.12.496 1.12 1.108v.026c1.155-.882 2.502-1.212 3.933-1.276 1.852.022 3.857.602 4.901 2.234.135-.194.023-.037.386-.434 1.145-1.141 2.748-1.8 4.66-1.8zM49.059 7.765a8.117 8.117 0 110 16.235 8.117 8.117 0 010-16.235zm0 2.28a5.838 5.838 0 100 11.675 5.838 5.838 0 000-11.675zM30.759.008c1.948-.09 3.64.559 4.931 1.748 1.061.977 1.787 2.28 1.988 3.455a1.125 1.125 0 01-.945 1.29c-.627.103-1.22-.31-1.325-.92-.118-.686-.599-1.55-1.3-2.195-.848-.781-1.934-1.198-3.232-1.137-2.346.122-4.02 1.974-3.945 3.774.078 1.876 1.189 3.134 4.127 3.74 4.311.89 7.075 3.627 7.06 6.993-.007 1.48-.624 3.087-1.735 4.307-1.32 1.45-3.224 2.264-5.551 2.23-3.815-.055-6.68-3.223-6.831-6.758-.026-.619.467-1.141 1.102-1.167.636-.025 1.172.456 1.198 1.075.103 2.413 2.055 4.57 4.565 4.607 1.658.024 2.92-.516 3.796-1.476.735-.808 1.15-1.887 1.153-2.828.01-2.2-1.911-4.103-5.234-4.788-3.96-.817-5.83-2.935-5.95-5.844-.126-3.01 2.5-5.916 6.128-6.106zM1.436 9.626L18.305 0l2.871 4.916-16.868 9.626-2.872-4.916zM0 18.378l16.869-9.627 2.871 4.917-16.868 9.626L0 18.378z"/></g></g></svg>