<svg width="95" height="28" xmlns="http://www.w3.org/2000/svg"><g fill="none" fill-rule="evenodd"><g fill="#2E304B" fill-rule="nonzero"><path d="M15.556 14.196c0 1.228-.182 2.332-.545 3.313-.362.98-.855 1.82-1.477 2.515a6.344 6.344 0 01-2.178 1.596 6.45 6.45 0 01-2.645.552c-.704 0-1.312-.077-1.82-.23-.51-.152-.929-.33-1.26-.536a4.48 4.48 0 01-.965-.767h-.311v7.054L4.043 28H.312L0 27.693V6.835l.312-.307h3.421l.312.307.311.92h.312c.27-.286.592-.541.965-.767a7.113 7.113 0 011.26-.521c.506-.163 1.114-.245 1.82-.245a6.383 6.383 0 014.823 2.148c.621.694 1.114 1.533 1.477 2.515.36.981.543 2.085.543 3.311zm-4.357 0c0-1.227-.259-2.25-.778-3.068-.52-.817-1.4-1.227-2.645-1.227s-2.125.41-2.645 1.227c-.52.818-.778 1.84-.778 3.068s.259 2.25.778 3.068c.518.818 1.4 1.227 2.645 1.227s2.125-.41 2.645-1.227c.52-.818.778-1.84.778-3.068zM31.577 22.243h-3.42l-.312-.315-.312-.942h-.312a2.67 2.67 0 01-.808.785c-.29.21-.674.393-1.151.55-.477.156-1.069.235-1.773.235-1.099 0-2.09-.205-2.97-.614a6.603 6.603 0 01-2.256-1.696c-.621-.722-1.099-1.586-1.431-2.59-.333-1.005-.499-2.095-.499-3.267 0-1.172.166-2.262.499-3.266.33-1.005.808-1.87 1.431-2.591a6.603 6.603 0 012.255-1.696c.88-.41 1.872-.614 2.97-.614.705 0 1.297.084 1.774.25.477.168.86.346 1.151.534.352.231.622.493.808.786h.312l.312-.942.311-.315h3.421l.312.315v15.078l-.312.315zM20.69 14.389c0 1.257.26 2.304.778 3.142.518.837 1.4 1.257 2.645 1.257s2.125-.42 2.645-1.257c.517-.838.778-1.885.778-3.142s-.26-2.304-.778-3.142c-.52-.837-1.4-1.257-2.645-1.257s-2.125.42-2.645 1.257c-.519.84-.778 1.887-.778 3.142zM44.028 9.955h-2.145c-1.226 0-2.093.323-2.604.965-.512.643-.767 1.67-.767 3.08v7.466l-.307.312H34.53l-.307-.312V6.534l.307-.312h3.37l.306.312.307.933h.307c.142-.227.357-.435.643-.621.245-.166.588-.312 1.027-.435.439-.125 1.006-.187 1.7-.187h1.837l.307.312v3.111l-.305.308zM59.577 22.243h-3.42l-.312-.315-.312-.942h-.312a2.67 2.67 0 01-.808.785c-.29.21-.674.393-1.151.55-.477.156-1.069.235-1.773.235-1.099 0-2.09-.205-2.97-.614a6.62 6.62 0 01-2.256-1.696c-.623-.722-1.1-1.586-1.431-2.59-.333-1.005-.499-2.095-.499-3.267 0-1.172.166-2.262.499-3.266.33-1.005.808-1.87 1.431-2.591a6.603 6.603 0 012.255-1.696c.88-.41 1.872-.614 2.97-.614.705 0 1.297.084 1.774.25.477.168.86.346 1.151.534.352.231.622.493.808.786h.312l.312-.942.311-.315h3.421l.312.315v15.078l-.312.315zM48.69 14.389c0 1.257.26 2.304.778 3.142.518.837 1.4 1.257 2.645 1.257s2.125-.42 2.645-1.257c.517-.838.778-1.885.778-3.142s-.26-2.304-.778-3.142c-.52-.837-1.4-1.257-2.645-1.257s-2.125.42-2.645 1.257c-.519.84-.778 1.887-.778 3.142zM65.833 21.778H62.5l-.278-.312V.312L62.5 0h3.333l.278.312v21.154zM72.055 21.778h-3.332l-.279-.312V.312L68.723 0h3.332l.278.312v21.154zM88.667 15.644l-.309.315h-9.543l-.309.315c0 .169.047.387.138.66.092.271.251.549.477.831.225.283.539.525.94.722.4.2.907.3 1.524.3.473 0 .908-.08 1.309-.236.4-.158.681-.393.847-.707l.308-.313h3.694l.309.313a6.294 6.294 0 01-.494 1.54c-.245.544-.622 1.052-1.123 1.523-.504.471-1.15.864-1.94 1.177-.79.315-1.76.472-2.91.472-1.313 0-2.451-.22-3.417-.66-.965-.44-1.765-1.031-2.4-1.775a7.293 7.293 0 01-1.417-2.59 10.448 10.448 0 01-.462-3.142c0-1.088.153-2.13.462-3.126a7.547 7.547 0 011.385-2.607 6.667 6.667 0 012.309-1.774c.923-.44 2-.66 3.232-.66 1.232 0 2.309.22 3.232.66a6.667 6.667 0 012.309 1.774 7.547 7.547 0 011.385 2.607c.309.994.462 2.038.462 3.126v1.255h.002zm-4.618-3.142c0-.083-.031-.261-.092-.533a2.73 2.73 0 00-.37-.848c-.184-.294-.461-.555-.83-.786-.37-.23-.863-.345-1.478-.345s-1.109.116-1.478.345c-.37.231-.646.492-.831.786a2.73 2.73 0 00-.37.848c-.06.272-.092.45-.092.533l.309.315h4.925l.307-.315zM93.833 21.778H90.5l-.278-.312V.312L90.5 0h3.333l.278.312v21.154z"/></g></g></svg>