<svg width="113" height="26" xmlns="http://www.w3.org/2000/svg"><g fill="none" fill-rule="evenodd"><path d="M11.512.83v2.943H3.705V8.74h6.256v2.839H3.705v7.805H0V.83h11.512zm11.082 5.34a6.239 6.239 0 012.545 2.47c.618 1.077.929 2.343.929 3.797 0 1.453-.31 2.715-.93 3.785a6.329 6.329 0 01-2.544 2.47c-1.078.577-2.294.864-3.649.864s-2.57-.29-3.649-.865a6.36 6.36 0 01-2.546-2.469c-.618-1.07-.927-2.332-.927-3.785 0-1.454.31-2.72.927-3.798a6.231 6.231 0 012.546-2.47c1.079-.566 2.294-.851 3.65-.851 1.354 0 2.57.285 3.648.852zm-6.157 3.246c-.686.695-1.027 1.7-1.027 3.02 0 1.321.34 2.329 1.027 3.021.687.693 1.521 1.04 2.508 1.04.986 0 1.822-.347 2.508-1.04.687-.692 1.028-1.7 1.028-3.02s-.343-2.328-1.028-3.02c-.686-.693-1.52-1.04-2.508-1.04-.985 0-1.821.347-2.508 1.04zM38.28 6.17a6.239 6.239 0 012.544 2.47c.618 1.077.929 2.343.929 3.797 0 1.453-.31 2.715-.93 3.785a6.329 6.329 0 01-2.543 2.47c-1.079.577-2.294.864-3.65.864-1.354 0-2.57-.29-3.648-.865a6.36 6.36 0 01-2.547-2.469c-.618-1.07-.927-2.332-.927-3.785 0-1.454.31-2.72.927-3.798a6.231 6.231 0 012.547-2.47c1.078-.566 2.294-.851 3.649-.851s2.57.285 3.649.852zm-6.157 3.246c-.687.695-1.028 1.7-1.028 3.02 0 1.321.341 2.329 1.028 3.021.686.693 1.52 1.04 2.508 1.04.985 0 1.821-.347 2.508-1.04.686-.692 1.027-1.7 1.027-3.02s-.343-2.328-1.027-3.02c-.687-.693-1.521-1.04-2.508-1.04-.986 0-1.822.347-2.508 1.04zM46.929.83v18.554h-3.535V.83h3.535zm13.302 5.34c.937.57 1.668 1.391 2.195 2.47.527 1.077.79 2.343.79 3.797 0 1.453-.263 2.72-.79 3.797-.527 1.078-1.258 1.902-2.195 2.47-.937.569-1.99.852-3.159.852-1.17 0-2.168-.28-2.996-.84a4.582 4.582 0 01-1.767-2.243V26h-3.536V5.492h3.536v2.883a4.519 4.519 0 011.767-2.231c.828-.552 1.827-.828 2.996-.828 1.17.002 2.222.287 3.159.854zm-6.908 3.323c-.695.727-1.04 1.71-1.04 2.946 0 1.22.347 2.194 1.04 2.921.692.727 1.575 1.09 2.645 1.09 1.102 0 1.989-.355 2.657-1.066.669-.71 1.004-1.692 1.004-2.945 0-1.254-.335-2.24-1.004-2.958-.668-.719-1.555-1.078-2.657-1.078-1.07-.002-1.953.361-2.645 1.09zm17.124-3.436c.852-.511 1.805-.765 2.859-.765v3.785h-1.028c-2.59 0-3.887 1.203-3.887 3.61v6.695h-3.536V5.492h3.536v2.656a5.833 5.833 0 012.056-2.091zm14.519.113a6.239 6.239 0 012.544 2.47c.618 1.077.929 2.343.929 3.797 0 1.453-.31 2.715-.93 3.785a6.329 6.329 0 01-2.543 2.47c-1.079.577-2.294.864-3.65.864-1.354 0-2.57-.29-3.648-.865a6.36 6.36 0 01-2.547-2.469c-.618-1.07-.927-2.332-.927-3.785 0-1.454.31-2.72.927-3.798a6.231 6.231 0 012.547-2.47c1.078-.566 2.294-.851 3.649-.851s2.57.285 3.649.852zm-6.157 3.246c-.687.695-1.028 1.7-1.028 3.02 0 1.321.341 2.329 1.028 3.021.686.693 1.52 1.04 2.508 1.04.985 0 1.821-.347 2.508-1.04.686-.692 1.027-1.7 1.027-3.02s-.343-2.328-1.027-3.02c-.687-.693-1.52-1.04-2.508-1.04-.986 0-1.822.347-2.508 1.04zm21.84-3.246a6.239 6.239 0 012.545 2.47c.618 1.077.929 2.343.929 3.797 0 1.453-.309 2.715-.929 3.785a6.329 6.329 0 01-2.544 2.47c-1.079.577-2.294.864-3.65.864-1.354 0-2.57-.29-3.648-.865a6.36 6.36 0 01-2.547-2.469c-.617-1.07-.926-2.332-.926-3.785 0-1.454.309-2.72.926-3.798a6.231 6.231 0 012.547-2.47c1.078-.566 2.294-.851 3.649-.851s2.57.285 3.649.852zm-6.156 3.246c-.687.695-1.028 1.7-1.028 3.02 0 1.321.341 2.329 1.028 3.021.686.693 1.52 1.04 2.508 1.04.985 0 1.821-.347 2.508-1.04.686-.692 1.028-1.7 1.028-3.02s-.344-2.328-1.028-3.02c-.687-.693-1.52-1.04-2.508-1.04s-1.822.347-2.508 1.04zm16.326-5.879c-.418.368-.628 1.012-.628 1.93v.025H113v2.984h-2.809v10.906h-3.536V8.476h-1.78V5.492h1.78v-.326c0-1.655.473-2.929 1.416-3.823.945-.895 2.344-1.343 4.2-1.343.317 0 .561.008.727.024v3.059c-1.034-.063-1.76.087-2.179.454z" fill="#2E304B" fill-rule="nonzero"/></g></svg>