<svg width="98" height="22" xmlns="http://www.w3.org/2000/svg"><g fill="none" fill-rule="evenodd"><path d="M96.045 7.486h.71v4.69h-.913c-.253-1.247-.81-2.195-1.673-2.944a4.812 4.812 0 00-3.091-1.048c-.811 0-1.42.15-1.876.5-.506.349-.71.798-.76 1.347 0 .47.226.915.608 1.197.355.35 1.014.699 2.028 1.098l3.04 1.248c1.217.499 2.13 1.048 2.636 1.696.558.6.811 1.398.811 2.296 0 1.198-.507 2.146-1.368 2.894-.862.7-2.028 1.098-3.396 1.098-.507 0-.963 0-1.42-.1a12.559 12.559 0 01-2.584-.798 2.056 2.056 0 00-.608-.1c-.355 0-.66.05-.912.2-.254.1-.507.3-.66.499h-.76v-5.39h1.014c.406 1.497 1.115 2.645 2.027 3.494a5.064 5.064 0 003.396 1.247 3.073 3.073 0 001.926-.599c.492-.387.772-.977.76-1.597 0-.549-.202-.998-.506-1.397-.406-.4-1.014-.748-1.876-1.098l-3.04-1.197c-1.268-.5-2.23-1.098-2.788-1.697a2.873 2.873 0 01-.913-2.146c0-1.048.507-1.946 1.42-2.595.912-.649 2.128-.998 3.649-.998a9.567 9.567 0 012.534.3l1.014.299h.304c.148.049.3.082.456.1.355 0 .659-.2.81-.5zM66.75 1.248V.299h8.87v.998h-.76c-.862-.05-1.42.1-1.673.5-.305.449-.406 1.297-.355 2.595v10.08c0 1.297.101 2.345.304 3.044a4.633 4.633 0 002.838 2.645c.558.2 1.166.3 1.825.3 1.52 0 2.686-.5 3.548-1.498.861-.948 1.317-2.295 1.317-3.992V5.489c0-1.197-.354-2.145-1.013-2.994a3.056 3.056 0 00-2.332-1.198h-.05V.3h7.754v.998c-.912 0-1.723.4-2.331 1.198a4.743 4.743 0 00-1.014 2.944v9.033c.05 1.198 0 2.146-.152 2.795a5.335 5.335 0 01-2.331 3.493 6.63 6.63 0 01-1.926.948 9.049 9.049 0 01-5.981-.499 6.383 6.383 0 01-2.686-2.146 5.45 5.45 0 01-.811-1.747c-.152-.648-.203-1.397-.203-2.345V4.391c0-1.297-.101-2.145-.405-2.594-.254-.4-.811-.55-1.673-.5h-.76v-.05zM46.122 20.76c1.267 0 2.128-.5 2.585-1.447.506-.949.76-2.595.76-4.99 0-2.346-.254-3.993-.76-4.991-.507-.948-1.318-1.397-2.535-1.397-1.267 0-2.128.499-2.584 1.447-.507.998-.76 2.645-.76 4.99 0 2.346.253 3.992.76 4.99.506.949 1.317 1.398 2.534 1.398zm0 .998c-2.078 0-3.75-.649-4.917-1.996a7.802 7.802 0 01-1.672-5.34c0-2.196.507-3.992 1.52-5.24 1.166-1.447 2.839-2.196 5.069-2.196 1.013 0 1.774.1 2.382.25a8.14 8.14 0 001.926.25h5.676V5.739c0-1.996.406-3.344 1.115-4.042.913-.948 2.23-1.398 3.852-1.398 1.318 0 2.382.3 3.244.899a2.585 2.585 0 011.216 2.195c0 .55-.202 1.098-.557 1.498-.406.399-.862.598-1.42.598-.506 0-.912-.15-1.266-.499-.355-.3-.507-.698-.507-1.147 0-.35.101-.7.253-.999l.203-.349c.152-.2.203-.35.203-.499 0-.449-.406-.699-1.166-.699-.81 0-1.368.25-1.673.749-.304.5-.456 1.447-.456 2.795v2.645h2.585v.998h-2.534v9.73c0 1.248.203 1.947.71 2.047l.76.1h1.216v.898H53.32v-.898h1.267c.861 0 1.318-.3 1.47-.899l.05-1.247V8.484h-2.128c-1.572 0-2.382.25-2.382.698 0 .15.1.35.253.6.81 1.247 1.216 2.744 1.115 4.54-.101 2.396-.811 4.242-2.18 5.59a6.335 6.335 0 01-4.662 1.896v-.05zM28.129.299h6.031v17.966c0 .898.051 1.497.254 1.746.203.25.659.4 1.318.35h1.216v.948H11.404v-.948h1.267c.405 0 .76-.05.963-.2.203-.15.304-.35.304-.649v-.25l-.101-.398-.153-.5-1.317-3.842h-6.59l-.455 1.447-.304 1.248c-.102.349-.152.698-.102.998 0 .649.203 1.197.608 1.597.406.349 1.014.549 1.724.549h.507v.948H0v-.948c.608 0 1.115-.1 1.622-.35.507-.25.861-.648 1.267-1.098a23.322 23.322 0 001.52-3.393L8.211 3.443c.202-.698.354-.848.202-1.497-.101-.499-.658-.998-1.926-.998h-.912V0h5.322l5.676 17.416c.355 1.148.76 1.897 1.217 2.346.355.35.912.599 1.52.599h1.47c.608 0 1.014-.1 1.267-.35.203-.3.304-.848.254-1.796V3.344c0-.899-.051-1.498-.254-1.747-.203-.3-.659-.4-1.267-.4h-1.52V.3h6.082v17.966c0 .898.05 1.497.253 1.746.203.25.608.4 1.267.35h2.686c.609 0 1.014-.1 1.267-.35.203-.3.305-.848.254-1.796V3.344c0-.899-.05-1.498-.254-1.747-.202-.3-.658-.4-1.267-.4H28.13V.3zM6.082 13.574h6.082L9.123 4.242l-3.041 9.332z" fill="#2E304B"/></g></svg>