<svg width="194" height="20" xmlns="http://www.w3.org/2000/svg"><g fill="none" fill-rule="evenodd"><g fill="#2E304B" fill-rule="nonzero"><path d="M13.585 13.132c-.318-.596-.682-1.055-1.123-1.391-.627-.446-1.391-.71-2.36-.841 1.419-.236 2.597-.814 3.542-1.705.764-.722 1.219-1.604 1.378-2.677.045-.29.064-.595.064-.918 0-3.173-2.124-5.35-6.82-5.35H0v19.145h2.546v-7.572h4.065c2.268 0 3.45.272 4.223 1.309.469.627.787 1.536 1.1 2.832l.842 3.436h2.7l-.89-3.486c-.3-1.146-.619-2.064-1-2.782zm-11.039-3.2V2.486h5.065c3.542 0 4.956 1.364 4.956 3.673 0 .127-.005.246-.014.368-.186 2.205-2.091 3.41-5.151 3.41H2.546v-.005zM44.325 11.264h6.792c-.1.681-.25 1.304-.44 1.872h-.615c-.977 2.878-3.091 4.269-6.037 4.269-3.033 0-5.043-1.664-5.834-4.269h.614c-.295-.968-.418-2.068-.364-3.259.06-1.24.282-2.368.682-3.35h.614a6.852 6.852 0 011.396-2.177c1.255-1.3 2.91-2.01 4.96-2.01 3.324 0 4.992 1.32 6.174 3.96l2.328-1.423c-.777-1.468-1.818-2.645-3.132-3.532C50.158.46 48.426 0 46.23 0c-4.633 0-7.866 2.6-9.157 6.523h-.61a12.801 12.801 0 00-.609 3.418c-.05 1.118.037 2.19.26 3.19H35.5c.836 3.792 3.587 6.524 7.893 6.524 3.664 0 6.06-1.878 7.101-5.473l-.2 2.44-.123 2.769h2.492l.291-6.26h.614l.173-3.758h-9.32l-.096 1.89zM75.128 9.377h-9.312l-.132 1.887h6.78a11.422 11.422 0 01-.478 1.868h-.823c-1.023 2.863-3.11 4.254-6.065 4.254-3.019 0-5.02-1.64-5.774-4.254h.823c-.287-.996-.396-2.137-.31-3.377.082-1.182.323-2.273.728-3.232h.823a7.06 7.06 0 011.446-2.2c1.25-1.268 2.91-1.991 4.974-1.991 3.36 0 5.01 1.336 6.151 3.973l2.346-1.419c-.76-1.481-1.791-2.663-3.096-3.554C71.918.455 70.181 0 67.962 0c-4.683 0-7.915 2.64-9.243 6.523h-.823a12.872 12.872 0 00-.645 3.259 12.44 12.44 0 00.204 3.35h-.823c.791 3.823 3.528 6.523 7.798 6.523 3.673 0 6.033-1.887 7.133-5.455l-.259 2.427-.186 2.764h2.491l.437-6.26h.822l.26-3.754zM91.94 17.09H80.607l.369-3.958h1.04l.223-2.437h9.053l.173-1.968h-9.03l.205-2.204h1.036l.373-3.987h11.28l.21-2.281h-13.8l-.582 6.268H80.12l-.619 6.609h-1.036l-.587 6.268h13.854zM132.706 17.09H121.37l.555-3.958h1.464l.336-2.437h9.052l.264-1.968h-9.025l.31-2.204h1.463l.555-3.987h11.28l.314-2.281h-13.795l-.877 6.268h-1.464l-.923 6.609h-1.464l-.878 6.268h13.854zM166.15 11.264h6.793c-.1.681-.25 1.304-.441 1.872h-.4c-.978 2.878-3.092 4.269-6.038 4.269-3.033 0-5.042-1.664-5.834-4.269h.4c-.295-.968-.418-2.068-.363-3.259.059-1.24.282-2.368.682-3.35h.4a6.852 6.852 0 011.396-2.177c1.255-1.3 2.91-2.01 4.96-2.01 3.324 0 4.992 1.32 6.174 3.96l2.328-1.423c-.777-1.468-1.818-2.645-3.132-3.532C171.77.46 170.037 0 167.84 0c-4.633 0-7.865 2.6-9.156 6.523h-.4a12.801 12.801 0 00-.61 3.418c-.05 1.118.037 2.19.26 3.19h-.4c.836 3.792 3.587 6.524 7.892 6.524 3.665 0 6.06-1.878 7.102-5.473l-.2 2.44-.123 2.769h2.492l.29-6.26h.4l.174-3.758h-9.32l-.092 1.89zM181.986 17.09v-6.395h9.052V8.727h-9.052v-6.19h11.28V.254h-13.799V19.4h13.853v-2.31zM32.423 12.744h.395l-2.444-6.54h.395L28.442 0h-2.843l-2.61 6.203h-.394l-2.749 6.541h-.394l-2.61 6.203h2.646l1.757-4.336h9.282l1.555 4.336h2.655l-2.314-6.203zm-2.569 0h-7.448l2.66-6.54h.394l.56-1.377.937-2.569.826 2.542.506 1.403h-.394l2.358 6.541h-.399zM113.468 6.203h1.269C113.819 2.551 110.775 0 105.76 0h-6.222l-.743 6.203h-1.269l-.78 6.541H95.48l-.742 6.203h7.062c5.276 0 8.597-2.56 9.972-6.203h1.268c.314-.828.526-1.714.637-2.64.161-1.382.092-2.7-.208-3.9zm-4.47 6.541c-1.166 2.33-3.49 3.891-7.052 3.891h-4.363l.461-3.891h1.268l.78-6.54h1.268l.466-3.919h3.704c3.533 0 5.683 1.52 6.509 3.918h-1.269c.37 1.08.475 2.335.314 3.707-.12 1.021-.388 1.98-.817 2.834H109zM155.79 6.203C154.85 2.488 151.74 0 146.665 0h-6.152l-.587 6.203h-.94l-.618 6.541h-.94l-.587 6.203h6.868c5.226 0 8.513-2.537 9.842-6.203h.94c.316-.877.523-1.822.614-2.811.124-1.337.037-2.592-.252-3.73h.935zm-4.993 6.541c-1.128 2.353-3.43 3.891-6.977 3.891h-4.204l.366-3.891h.94l.62-6.54h.939l.371-3.919h3.631c3.58 0 5.767 1.485 6.615 3.918h-.94c.358 1.035.477 2.24.358 3.572-.096 1.08-.357 2.078-.784 2.969h-.935z"/></g></g></svg>