<?xml version="1.0" encoding="utf-8"?>
<!-- Generator: Adobe Illustrator 15.0.0, SVG Export Plug-In . SVG Version: 6.00 Build 0)  -->
<!DOCTYPE svg PUBLIC "-//W3C//DTD SVG 1.1//EN" "http://www.w3.org/Graphics/SVG/1.1/DTD/svg11.dtd">
<svg version="1.1" id="Layer_1" xmlns="http://www.w3.org/2000/svg" xmlns:xlink="http://www.w3.org/1999/xlink" x="0px" y="0px"
	 width="1000px" height="1000px" viewBox="0 0 1000 1000" enable-background="new 0 0 1000 1000" xml:space="preserve">
<g>
	<g opacity="0.3">
		<g>
			<g>
				<g>
					<rect id="SVGID_1_" x="406.668" y="213.4" fill="#1A1A1A" width="33.334" height="49.999"/>
				</g>
				<g>
					<g>
						<defs>
							<rect id="SVGID_4_" x="406.668" y="213.4" width="33.334" height="49.999"/>
						</defs>
						<clipPath id="SVGID_5_">
							<use xlink:href="#SVGID_4_"  overflow="visible"/>
						</clipPath>
						<rect x="406.668" y="213.4" clip-path="url(#SVGID_5_)" fill="#1A1A1A" width="33.334" height="49.999"/>
					</g>
				</g>
			</g>
		</g>
	</g>
	<path fill="#1A1A1A" d="M438.327,200h-29.988c-4.584,0-8.339,3.745-8.339,8.337v63.343c0,4.573,3.755,8.32,8.339,8.32h29.988
		c4.604,0,8.347-3.748,8.347-8.32v-63.343C446.676,203.745,442.93,200,438.327,200 M423.338,277.571
		c-3.267,0-5.905-2.642-5.905-5.909c0-3.264,2.64-5.904,5.905-5.904c3.262,0,5.906,2.64,5.906,5.904
		C429.245,274.931,426.601,277.571,423.338,277.571 M406.665,213.34h33.337v49.994h-33.337V213.34z"/>
</g>
<g>
	<g>
		<path fill="#1A1A1A" d="M205.684,240c0,13.578,7.891,25.324,19.337,30.883l-16.368-44.848
			C206.749,230.301,205.684,235.021,205.684,240z"/>
		<path fill="#1A1A1A" d="M263.164,238.266c0-4.239-1.532-7.177-2.83-9.457c-1.741-2.83-3.374-5.226-3.374-8.05
			c0-3.16,2.39-6.091,5.764-6.091c0.146,0,0.292,0.019,0.44,0.029c-6.094-5.594-14.23-9.014-23.167-9.014
			c-11.987,0-22.533,6.157-28.668,15.469c0.803,0.03,1.566,0.04,2.208,0.04c3.592,0,9.144-0.431,9.144-0.431
			c1.852-0.116,2.068,2.605,0.227,2.821c0,0-1.865,0.22-3.932,0.332l12.497,37.164l7.511-22.52l-5.341-14.644
			c-1.853-0.112-3.605-0.332-3.605-0.332c-1.849-0.108-1.629-2.936,0.219-2.823c0,0,5.664,0.432,9.034,0.432
			c3.586,0,9.148-0.432,9.148-0.432c1.844-0.113,2.072,2.604,0.216,2.823c0,0-1.861,0.22-3.926,0.332l12.404,36.887l3.42-11.441
			C262.035,244.614,263.164,241.207,263.164,238.266z"/>
		<path fill="#1A1A1A" d="M240.602,243l-10.297,29.923c3.075,0.893,6.325,1.397,9.691,1.397c4,0,7.83-0.691,11.395-1.941
			c-0.092-0.152-0.179-0.309-0.252-0.477L240.602,243z"/>
		<path fill="#1A1A1A" d="M270.114,223.536c0.145,1.094,0.226,2.266,0.226,3.53c0,3.481-0.652,7.398-2.609,12.29l-10.484,30.305
			c10.211-5.949,17.07-16.997,17.07-29.661C274.316,234.039,272.785,228.423,270.114,223.536z"/>
		<path fill="#1A1A1A" d="M240,200c-22.054,0-40,17.946-40,40c0,22.06,17.946,40,40,40c22.06,0,40-17.94,40-40
			C280,217.946,262.06,200,240,200z M240,278.164c-21.04,0-38.166-17.118-38.166-38.164c0-21.04,17.12-38.166,38.166-38.166
			c21.051,0,38.164,17.125,38.164,38.166C278.164,261.048,261.045,278.164,240,278.164z"/>
	</g>
</g>
<g>
	<path fill="#1A1A1A" d="M23.591,232.591h11.663v-9.042H22.79L23.591,232.591z M0,200l6.426,71.999L35.235,280l28.847-7.998
		L70.507,200H0z M58.573,267.413l-23.319,6.468v-9.154h-0.012l-18.093-5.017l-1.266-14.188h8.863l0.664,7.364l9.832,2.641h0.012
		v-14.1H15.526l-2.384-26.708h22.112v-8.827H64.07L58.573,267.413z"/>
	<path opacity="0.8" fill="#1A1A1A" enable-background="new    " d="M46.128,241.426H35.254v14.098l9.847-2.652L46.128,241.426z
		 M35.254,205.892v8.827h22.119l-0.791,8.831H35.254v9.041h20.521l-2.426,27.118l-18.096,5.017v9.156l23.319-6.468l5.497-61.522
		L35.254,205.892L35.254,205.892z"/>
	<g opacity="0.2">
		<polygon fill="#1A1A1A" points="35.254,214.719 13.142,214.719 15.526,241.426 35.254,241.426 35.254,232.591 23.591,232.591 
			22.79,223.55 35.254,223.55 		"/>
		<polygon fill="#1A1A1A" points="35.254,255.524 35.244,255.526 25.41,252.877 24.749,245.521 15.891,245.521 17.149,259.709 
			35.242,264.726 35.254,264.726 		"/>
	</g>
</g>
<g>
	<path fill="#FFFFFF" d="M830,423.75c0,0.345-0.28,0.625-0.625,0.625h-28.75c-0.344,0-0.625-0.28-0.625-0.625v-2.5
		c0-0.345,0.281-0.625,0.625-0.625h28.75c0.344,0,0.624,0.28,0.624,0.625L830,423.75L830,423.75z M830,413.75
		c0-0.344-0.28-0.625-0.625-0.625h-28.75c-0.344,0-0.625,0.281-0.625,0.625v2.5c0,0.345,0.281,0.625,0.625,0.625h28.75
		c0.344,0,0.624-0.28,0.624-0.625L830,413.75L830,413.75z M830,406.25c0-0.344-0.28-0.625-0.625-0.625h-28.75
		c-0.344,0-0.625,0.281-0.625,0.625v2.5c0,0.344,0.281,0.625,0.625,0.625h28.75c0.344,0,0.624-0.282,0.624-0.625L830,406.25
		L830,406.25z"/>
</g>
<g id="embed">
	<path fill="#FFFFFF" d="M630,414.134v1.494l-10.998,6.359v-3.051l7.104-4.058l-7.104-3.819v-3.047L630,414.134z M600,414.134v1.494
		l11,6.359v-3.051l-7.105-4.058L611,411.06v-3.047L600,414.134z"/>
</g>
<g id="RKLmLk.tif">
	<g>
		<path fill="#FFFFFF" d="M730,411.955c-1.109,0.469-2.262,0.889-3.426,1.303c1.021,1.145,0.665,3.502,0.065,4.862
			c0.409,0.51,0.319,1.479-0.336,1.643c-0.003,0.726,0.124,1.378,0.336,1.919c0.233,0.585,0.671,0.979,0.896,1.371
			c-0.562,0.19-0.933,0.574-1.718,0.547c-1.001-0.734-1.146-3.047-0.336-4.107c-0.09-0.211-0.195-0.562-0.141-0.826
			c0.078-0.355,0.355-0.401,0.551-0.752c0.682-1.248,0.558-3.445-0.279-4.246c-2.527,0.922-4.957,1.798-7.663,2.809
			c-0.663,0.242-1.815,0.967-2.474,0.957c-0.468-0.003-1.35-0.619-1.979-0.891c-4.564-1.926-9.138-4.107-13.497-6.16
			c3.753-0.998,7.646-1.947,11.509-2.945c1.286-0.334,2.531-0.836,3.762-1.031c0.453-0.066,1.281,0.445,1.923,0.686
			C721.494,408.731,725.784,410.344,730,411.955z"/>
		<path fill="#FFFFFF" d="M723.354,415.176c0.4,1.286,0.437,3.164,0.141,4.587c-3.98-0.972-7.359,0.675-9.045,2.88
			c-1.655-2.542-3.988-4.781-8.289-4.452c-0.211-1.493,0.337-2.823,0.691-3.972c1.726,0.799,4.433,1.934,6.506,2.875
			c0.676,0.308,1.551,0.938,2.053,0.956c0.478,0.022,1.49-0.468,2.055-0.681C719.432,416.609,721.479,415.73,723.354,415.176z"/>
	</g>
</g>
<g id="search_1_">
	<path fill="#FFFFFF" d="M529.812,426.181l-7.503-7.503c1.218-1.892,1.938-4.141,1.938-6.553c0-6.688-5.439-12.125-12.122-12.125
		c-6.688,0-12.125,5.438-12.125,12.125c0,6.686,5.437,12.121,12.125,12.121c2.411,0,4.659-0.717,6.553-1.937l7.502,7.503
		c0.251,0.251,0.668,0.251,0.909,0l2.723-2.724C530.063,426.842,530.063,426.438,529.812,426.181z M503.851,412.125
		c0-4.562,3.709-8.273,8.274-8.273c4.561,0,8.271,3.709,8.271,8.273c0,4.561-3.709,8.27-8.271,8.27
		C507.56,420.402,503.851,416.686,503.851,412.125z"/>
</g>
<g>
	<g opacity="0.3">
		<g>
			<g>
				<g>
					<rect id="SVGID_3_" x="8.5" y="405.026" fill="#FFFFFF" width="12.501" height="18.75"/>
				</g>
				<g>
					<g>
						<g>
							<rect id="SVGID_2_" x="8.5" y="405.026" fill="#FFFFFF" width="12.501" height="18.75"/>
						</g>
						<g>
							<defs>
								<rect id="SVGID_6_" x="8.5" y="405.026" width="12.501" height="18.75"/>
							</defs>
							<clipPath id="SVGID_7_">
								<use xlink:href="#SVGID_6_"  overflow="visible"/>
							</clipPath>
							<rect x="8.5" y="405.026" clip-path="url(#SVGID_7_)" fill="#FFFFFF" width="12.501" height="18.75"/>
						</g>
					</g>
				</g>
			</g>
		</g>
	</g>
	<path fill="#FFFFFF" d="M20.373,400H9.127C7.408,400,6,401.405,6,403.127v23.753c0,1.716,1.408,3.12,3.127,3.12h11.246
		c1.726,0,3.129-1.404,3.129-3.12v-23.753C23.503,401.405,22.099,400,20.373,400 M14.752,429.089c-1.226,0-2.214-0.99-2.214-2.216
		c0-1.225,0.989-2.214,2.214-2.214c1.223,0,2.214,0.989,2.214,2.214C16.966,428.1,15.975,429.089,14.752,429.089 M8.499,405.002
		h12.502v18.748H8.499V405.002z"/>
</g>
<g>
	<rect x="100" y="410.13" fill="#FFFFFF" width="9.741" height="9.74"/>
	<rect x="120.259" y="410.13" fill="#FFFFFF" width="9.741" height="9.74"/>
</g>
<g id="pencil">
	<path fill="#FFFFFF" d="M422.101,402.811l0.634,0.636l3.821,3.821l0.634,0.639l0.639-0.639l1.275-1.273l0.633-0.637
		c0.351-0.349,0.352-0.922,0-1.274l-3.82-3.819c-0.352-0.352-0.923-0.351-1.273,0l-0.635,0.634l-1.274,1.275L422.101,402.811z"/>
	<polygon fill="#FFFFFF" points="404.536,420.374 420.555,404.35 425.65,409.438 409.625,425.463 	"/>
	<path fill="#FFFFFF" d="M402.992,421.914l-2.949,7.678c-0.127,0.331,0.041,0.492,0.365,0.365l7.677-2.947L402.992,421.914z"/>
</g>
<g>
	<polygon id="chevron_17_" fill="#FFFFFF" points="215.003,400.009 200,407.594 200,412.578 215.003,404.995 230,412.578 
		230,407.594 	"/>
	<g>
		<polygon id="chevron_16_" fill="#FFFFFF" points="215.003,408.712 200,416.297 200,421.281 215.003,413.703 230,421.281 
			230,416.297 		"/>
	</g>
	<g>
		<polygon id="chevron_15_" fill="#FFFFFF" points="215.003,417.423 200,425.001 200,429.992 215.003,422.408 230,429.992 
			230,425.001 		"/>
	</g>
</g>
<path fill="#FFFFFF" d="M326.516,409.808l-9.206-6.626v-2.604h-4.619v2.606l-9.174,6.624H300v4.615h1.717l3.4,10.385h-0.502v4.615
	h4.615v-1.153h11.54v1.153h4.616v-4.615h-0.509l3.395-10.385H330v-4.615H326.516z M303.46,413.268h-2.306v-2.305h2.305
	L303.46,413.268L303.46,413.268z M313.845,401.733h2.31v2.305h-2.31V401.733z M308.075,428.27h-2.304v-2.307h2.304V428.27z
	 M324.229,428.27h-2.304v-2.307h2.306v2.307H324.229z M322.454,424.808h-1.684v1.155h-11.542v-1.155h-1.682l-3.4-10.385h0.47v-2.562
	l9.237-6.668h2.303l9.229,6.646v2.584h0.459L322.454,424.808z M328.845,413.268h-2.305v-2.305h2.305V413.268z"/>
<g id="github_2_">
	<path fill="#C32F34" d="M226.875,600h-23.75c-1.727,0-3.125,1.398-3.125,3.125v23.75c0,1.727,1.398,3.125,3.125,3.125h23.75
		c1.727,0,3.125-1.398,3.125-3.125v-23.75C230,601.398,228.602,600,226.875,600z M212.5,620H210v-3.75h2.5V620z M216.25,621.25h-2.5
		V620h2.5V621.25z M220,620h-2.5v-3.75h2.5V620z M218.75,608.75L218.75,608.75l5-2.5l0.078,5c0.903,1.084,1.172,2.229,1.172,3.75
		v1.25c0,2.305-1.263,4.296-3.117,5.38c0.379-0.438,0.617-1.004,0.617-1.63v-2.5c0-1.381-1.119-2.5-2.5-2.5h-10
		c-1.381,0-2.5,1.119-2.5,2.5v2.5c0,0.626,0.238,1.191,0.617,1.629c-1.855-1.084-3.117-3.074-3.117-5.379V615
		c0-1.428,0.444-2.698,1.25-3.75v-5l5,2.497L218.75,608.75z"/>
</g>
<g id="linked_x5F_in_2_">
	<path fill="#C32F34" d="M126.875,600h-23.75c-1.719,0-3.125,1.406-3.125,3.125v23.75c0,1.719,1.406,3.125,3.125,3.125h23.75
		c1.719,0,3.125-1.406,3.125-3.125v-23.75C130,601.406,128.594,600,126.875,600z M110,623.75h-0.163h-3.587v-12.5H110V623.75z
		 M108.125,609.551c-1.263,0-2.285-1.023-2.285-2.285s1.023-2.285,2.285-2.285s2.285,1.023,2.285,2.285
		S109.387,609.551,108.125,609.551z M123.75,623.75H120v-6.616c0-1.562-0.665-2.626-2.062-2.626c-1.066,0-1.283,0.719-1.561,1.411
		c-0.103,0.249-0.127,0.595-0.127,0.941v6.89h-3.75c0,0,0.051-11.41,0-12.5h3.75v2.129c0-0.79,0.885-2.168,3.828-2.168
		s3.672,0.093,3.672,4.226C123.75,619.57,123.75,623.75,123.75,623.75z"/>
</g>
<g id="twitter">
	<path fill="#C32F34" d="M26.875,600H3.125C1.406,600,0,601.406,0,603.125v23.75C0,628.594,1.406,630,3.125,630h23.75
		c1.719,0,3.125-1.406,3.125-3.125v-23.75C30,601.406,28.594,600,26.875,600z M23.929,611.136c0.007,0.191,0.013,0.386,0.013,0.579
		c0,5.924-4.507,12.751-12.75,12.751c-2.531,0-4.886-0.741-6.869-2.015c0.351,0.042,0.708,0.063,1.07,0.063
		c2.099,0,4.031-0.716,5.564-1.917c-1.961-0.036-3.615-1.332-4.186-3.112c0.274,0.054,0.555,0.078,0.844,0.078
		c0.408,0,0.804-0.057,1.18-0.156c-2.051-0.41-3.595-2.222-3.595-4.395c0-0.02,0-0.035,0-0.055c0.604,0.335,1.294,0.538,2.03,0.558
		c-1.202-0.802-1.994-2.174-1.994-3.728c0-0.821,0.221-1.592,0.607-2.252c2.209,2.71,5.511,4.494,9.236,4.682
		c-0.077-0.329-0.116-0.671-0.116-1.023c0-2.472,2.007-4.479,4.481-4.479c1.29,0,2.454,0.543,3.272,1.415
		c1.02-0.202,1.979-0.574,2.844-1.09c-0.334,1.049-1.045,1.926-1.97,2.479c0.907-0.105,1.771-0.347,2.574-0.704
		C25.562,609.713,24.804,610.502,23.929,611.136z"/>
</g>
<g>
	<path fill="#FFFFFF" d="M22.009,1.086C21.765,0.549,22.093,0,22.717,0h5.542c0.34,0,0.627,0.256,0.708,0.451l6.873,15.21h0.256
		l6.86-15.21C43.052,0.256,43.343,0,43.664,0h5.542c0.635,0,0.959,0.549,0.708,1.086L36.837,29.114
		c-0.128,0.25-0.375,0.464-0.706,0.464h-0.421c-0.323,0-0.579-0.214-0.708-0.464L22.009,1.086z"/>
	<path fill="#FFFFFF" d="M27.99,29.089c0.244,0.538-0.084,1.085-0.708,1.085H21.74c-0.338,0-0.628-0.255-0.708-0.451l-6.874-15.21
		h-0.255l-6.86,15.21c-0.096,0.195-0.385,0.45-0.708,0.45H0.793c-0.635,0-0.959-0.547-0.708-1.084L13.162,1.062
		c0.129-0.248,0.375-0.464,0.708-0.464h0.42c0.321,0,0.579,0.216,0.706,0.464L27.99,29.089z"/>
</g>
</svg>
