<svg class="c-splash__mark" xmlns="http://www.w3.org/2000/svg" width="121" height="73" viewBox="0 0 121 73"><path d="M52.8 2.6C52.2 1.3 53 0 54.5 0L67.8 0C68.6 0 69.3 0.6 69.5 1.1L86 37.6 86.6 37.6 103.1 1.1C103.3 0.6 104 0 104.8 0L118.1 0C119.6 0 120.4 1.3 119.8 2.6L88.4 69.9C88.1 70.5 87.5 71 86.7 71L85.7 71C84.9 71 84.3 70.5 84 69.9L52.8 2.6ZM67.2 69.8C67.8 71.1 67 72.4 65.5 72.4L52.2 72.4C51.4 72.4 50.7 71.8 50.5 71.3L34 34.8 33.4 34.8 16.9 71.3C16.7 71.8 16 72.4 15.2 72.4L1.9 72.4C0.4 72.4-0.4 71.1 0.2 69.8L31.6 2.5C31.9 1.9 32.5 1.4 33.3 1.4L34.3 1.4C35.1 1.4 35.7 1.9 36 2.5L67.2 69.8 67.2 69.8Z"/></svg>